<svg width="178" height="184" xmlns="http://www.w3.org/2000/svg" xmlns:xlink="http://www.w3.org/1999/xlink" xml:space="preserve" overflow="hidden"><defs><filter id="fx0" x="-10%" y="-10%" width="120%" height="120%" filterUnits="userSpaceOnUse" primitiveUnits="userSpaceOnUse"><feComponentTransfer color-interpolation-filters="sRGB"><feFuncR type="discrete" tableValues="0 0"/><feFuncG type="discrete" tableValues="0 0"/><feFuncB type="discrete" tableValues="0 0"/><feFuncA type="linear" slope="0.501961" intercept="0"/></feComponentTransfer><feGaussianBlur stdDeviation="1.77778 1.77778"/></filter><clipPath id="clip1"><rect x="545" y="254" width="178" height="184"/></clipPath><clipPath id="clip2"><rect x="17" y="23" width="140" height="147"/></clipPath><clipPath id="clip3"><rect x="0" y="0" width="181" height="186"/></clipPath><clipPath id="clip4"><path d="M123.936 7.16011 174.442 54.1723 57.9331 179.339 7.42719 132.327Z" fill-rule="evenodd" clip-rule="evenodd"/></clipPath><clipPath id="clip5"><path d="M123.936 7.16011 174.442 54.1723 57.9331 179.339 7.42719 132.327Z" fill-rule="evenodd" clip-rule="evenodd"/></clipPath><clipPath id="clip6"><path d="M123.936 7.16011 174.442 54.1723 57.9331 179.339 7.42719 132.327Z" fill-rule="evenodd" clip-rule="evenodd"/></clipPath><clipPath id="clip7"><path d="M665.683 259.704 716.189 306.716 599.68 431.883 549.174 384.871Z" fill-rule="evenodd" clip-rule="evenodd"/></clipPath><clipPath id="clip8"><path d="M665.683 259.704 716.189 306.716 599.68 431.883 549.174 384.871Z" fill-rule="evenodd" clip-rule="evenodd"/></clipPath><clipPath id="clip9"><path d="M665.683 259.704 716.189 306.716 599.68 431.883 549.174 384.871Z" fill-rule="evenodd" clip-rule="evenodd"/></clipPath></defs><g clip-path="url(#clip1)" transform="translate(-545 -254)"><g clip-path="url(#clip2)" filter="url(#fx0)" transform="translate(543 253)"><g clip-path="url(#clip3)"><g clip-path="url(#clip4)"><g clip-path="url(#clip5)"><g clip-path="url(#clip6)"><path d="M-487.9-132.994-476.189-122.093-503.442-92.8141-515.154-103.716Z" stroke="#172C51" stroke-width="1.33333" stroke-miterlimit="8" fill="#002060"/><path d="M-510.385-115.443C-509.382-116.521-507.694-116.582-506.616-115.578L-492.953-102.86C-491.875-101.857-491.814-100.169-492.818-99.0908L-500.085-91.2836C-501.089-90.2054-502.776-90.145-503.854-91.1486L-517.517-103.866C-518.595-104.87-518.656-106.557-517.652-107.636Z" fill="#0070C0" fill-rule="evenodd"/><path d="M-394.177-222.674-396.824-197.815-396.926-197.91-464.378-125.445-475.155-135.475-407.702-207.94-407.804-208.035Z" fill="#D9D9D9" fill-rule="evenodd"/><path d="M0 0 15 20 14.8606 20 14.8606 119 0.139407 119 0.139407 20 0 20Z" fill="#A6A6A6" fill-rule="evenodd" transform="matrix(-0.73197 -0.681337 -0.681337 0.73197 -394.177 -222.674)"/><path d="M-500.598-158.247C-499.594-159.325-497.907-159.386-496.828-158.382L-450.227-115.004C-449.149-114.001-449.088-112.313-450.092-111.235L-457.359-103.428C-458.363-102.35-460.05-102.289-461.128-103.293L-507.73-146.671C-508.808-147.674-508.868-149.362-507.865-150.44Z" fill="#ED7D31" fill-rule="evenodd"/></g></g></g></g></g><g clip-path="url(#clip7)"><g clip-path="url(#clip8)"><g clip-path="url(#clip9)"><path d="M596.847 372.55 608.558 383.451 581.305 412.73 569.594 401.828Z" stroke="#172C51" stroke-width="1.33333" stroke-miterlimit="8" fill="#002060"/><path d="M574.362 390.101C575.365 389.023 577.053 388.962 578.131 389.966L591.794 402.684C592.872 403.687 592.933 405.375 591.929 406.453L584.662 414.26C583.658 415.339 581.971 415.399 580.893 414.395L567.23 401.677C566.152 400.674 566.091 398.986 567.095 397.908Z" fill="#0070C0" fill-rule="evenodd"/><path d="M690.57 282.87 687.923 307.729 687.821 307.634 620.369 380.099 609.593 370.069 677.045 297.604 676.943 297.509Z" fill="#D9D9D9" fill-rule="evenodd"/><path d="M0 0 15 20 14.8606 20 14.8606 119 0.139407 119 0.139407 20 0 20Z" fill="#A6A6A6" fill-rule="evenodd" transform="matrix(-0.73197 -0.681337 -0.681337 0.73197 690.57 282.87)"/><path d="M584.149 347.297C585.153 346.219 586.84 346.158 587.919 347.162L634.52 390.54C635.598 391.543 635.659 393.231 634.655 394.309L627.388 402.116C626.385 403.194 624.697 403.255 623.619 402.251L577.017 358.873C575.939 357.87 575.879 356.182 576.882 355.104Z" fill="#ED7D31" fill-rule="evenodd"/></g></g></g></g></svg>